<svg width="260" height="60" viewBox="0 0 260 60" fill="none" xmlns="http://www.w3.org/2000/svg" role="img" aria-label="WORKOUT logo">
  <defs>
    <linearGradient id="flameG" x1="30" y1="6" x2="30" y2="54" gradientUnits="userSpaceOnUse">
      <stop offset="0" stop-color="#aeffe6"/>
      <stop offset="0.45" stop-color="#00e5a0"/>
      <stop offset="1" stop-color="#00b37d"/>
    </linearGradient>
    <linearGradient id="coreG" x1="30" y1="22" x2="30" y2="52" gradientUnits="userSpaceOnUse">
      <stop offset="0" stop-color="#ffffff"/>
      <stop offset="0.5" stop-color="#d4fff1"/>
      <stop offset="1" stop-color="#7cf0cf"/>
    </linearGradient>
  </defs>
  <!-- outer flame -->
  <path d="M30 5
           c3.2 5.8 1.4 11.6-1.1 15.4
           c-1.6 2.4-3.4 4.2-3.4 4.2
           c0.4-3.6-0.9-6.7-0.9-6.7
           c-3.1 3.1-6.4 6.4-8.3 10.8
           c-1.7 3.9-2.3 7.6-2.3 10.4
           a16 16 0 1 0 32 0
           c0-4.3-1.9-9.4-4.6-13.2
           c-2.1 4.9-4.6 5.6-6.9 4.4
           c3.6-4.9 5.1-11.2 4.1-17.1
           C31.1 19.1 30 5 30 5 Z"
        fill="url(#flameG)"/>
  <!-- inner core -->
  <path d="M30 24
           c2 3.2 1.6 6.4 0.2 8.8
           c1.7-0.4 2.9-1.6 3.7-3.2
           c2 2.8 3.3 6.2 3.3 9.2
           a7.2 7.2 0 1 1-14.4 0
           c0-2.4 0.9-5.2 2.7-7.6
           c0.3 2.1 1.1 3.6 2.4 4.4
           c-1.5-3.2-1.2-7.2 0.1-11.6 Z"
        fill="url(#coreG)"/>
  <!-- wordmark -->
  <text x="62" y="40" font-family="-apple-system, 'Helvetica Neue', Arial, sans-serif"
        font-size="30" font-weight="800" letter-spacing="-0.5" fill="#e8e8f0">WORKOUT</text>
</svg>
